# xmcd CD database file
#
# Track frame offsets:
#	150
#	21017
#	48105
#	75220
#	104533
#	152465
#	184787
#	201426
#	267048
#
# Disc length: 4124 seconds
#
# Revision: 0
# Processed by: cddbd v1.4PL0 Copyright (c) Steve Scherf et al.
# Submitted via: CDex 1.50Beta5
#
DISCID=63101a09
DTITLE=Tommy Nawratil's Redshift - Tommy Nawratil's Redshift
DYEAR=1998
DGENRE=Jazz
TTITLE0=Jumpy Dance
TTITLE1=Basmati Blues
TTITLE2=Good News from Vienna
TTITLE3=Apocalypso
TTITLE4=Raga Kirwani
TTITLE5=Die Welt von A - Z
TTITLE6=Calcutta Morning
TTITLE7=The Gypsies come from India
TTITLE8=Mangoes and Bananas with Msunduzi
EXTD=YEAR: 1998
EXTT0=
EXTT1=
EXTT2=
EXTT3=
EXTT4=
EXTT5=
EXTT6=
EXTT7=
EXTT8=
PLAYORDER=
